<?xml version="1.0" encoding="utf-8"?>

<!-- Uploaded to: SVG Repo, www.svgrepo.com, Generator: SVG Repo Mixer Tools -->
<svg fill="#000000" height="800px" width="800px" version="1.1" id="Icons" xmlns="http://www.w3.org/2000/svg" xmlns:xlink="http://www.w3.org/1999/xlink" 
	 viewBox="0 0 32 32" xml:space="preserve">
<g>
	<g>
		<path d="M21,10h-0.6l1.3-1.3C22,8.4,22.1,8,21.9,7.6S21.4,7,21,7h-3c-0.6,0-1,0.4-1,1s0.4,1,1,1h0.6l-1.3,1.3
			c-0.3,0.3-0.4,0.7-0.2,1.1S17.6,12,18,12h3c0.6,0,1-0.4,1-1S21.6,10,21,10z"/>
	</g>
	<g>
		<path d="M28,8h-1.6l2.1-2.3c0.3-0.3,0.3-0.7,0.2-1.1C28.6,4.2,28.2,4,27.8,4H24c-0.6,0-1,0.4-1,1s0.4,1,1,1h1.6l-2.1,2.3
			c-0.3,0.3-0.3,0.7-0.2,1.1c0.2,0.4,0.5,0.6,0.9,0.6H28c0.6,0,1-0.4,1-1S28.6,8,28,8z"/>
	</g>
</g>
<path d="M29.3,11.7C28.9,11.9,28.5,12,28,12h-3.8c-0.1,0-0.3,0-0.4,0c-0.4,1.2-1.5,2-2.8,2h-3c-1.2,0-2.3-0.7-2.8-1.9
	c-0.4-0.9-0.3-1.9,0.2-2.6C15.1,9.1,15,8.5,15,8c0-1.7,1.3-3,3-3h3c0-0.7,0.2-1.3,0.6-1.8c-0.1-0.1-0.1-0.1-0.2-0.1
	C19.7,2.4,17.9,2,16,2C8.3,2,2,8.3,2,16s6.3,14,14,14s14-6.3,14-14C30,14.5,29.8,13.1,29.3,11.7C29.3,11.7,29.3,11.7,29.3,11.7z
	 M7.7,17.8c-0.4-0.4-0.5-1-0.1-1.4c0.4-0.4,1-0.5,1.4-0.1c0.4,0.3,1.1,0.8,2,0.8s1.6-0.4,2-0.8c0.4-0.4,1-0.3,1.4,0.1s0.3,1-0.1,1.4
	C13.4,18.6,12.2,19,11,19S8.6,18.6,7.7,17.8z M19,24h-6c-0.6,0-1-0.4-1-1c0-2.2,1.8-4,4-4s4,1.8,4,4C20,23.6,19.6,24,19,24z
	 M24.3,17.8C23.4,18.6,22.2,19,21,19s-2.4-0.4-3.3-1.2c-0.4-0.4-0.5-1-0.1-1.4c0.4-0.4,1-0.5,1.4-0.1c0.4,0.3,1.1,0.8,2,0.8
	s1.6-0.4,2-0.8c0.4-0.4,1-0.3,1.4,0.1C24.7,16.8,24.7,17.4,24.3,17.8z"/>
</svg>